<svg width="22" height="20" viewBox="0 0 22 20" fill="none" xmlns="http://www.w3.org/2000/svg">
<path d="M3.83069 13.0464C2.61241 13.7835 -0.581825 15.2886 1.36368 17.172C2.31404 18.092 3.37251 18.75 4.70325 18.75H12.2968C13.6275 18.75 14.686 18.092 15.6363 17.172C17.5818 15.2886 14.3876 13.7835 13.1693 13.0464C10.3125 11.3179 6.68752 11.3179 3.83069 13.0464Z" stroke="#5D5D5D" stroke-width="1.5" stroke-linecap="round" stroke-linejoin="round"/>
<path d="M12.25 4.75C12.25 6.95914 10.4591 8.75 8.25 8.75C6.04086 8.75 4.25 6.95914 4.25 4.75C4.25 2.54086 6.04086 0.75 8.25 0.75C10.4591 0.75 12.25 2.54086 12.25 4.75Z" stroke="#5D5D5D" stroke-width="1.5"/>
<path d="M15.75 2.75L20.75 2.75" stroke="#5D5D5D" stroke-width="1.5" stroke-linecap="round" stroke-linejoin="round"/>
<path d="M15.75 5.75L20.75 5.75" stroke="#5D5D5D" stroke-width="1.5" stroke-linecap="round" stroke-linejoin="round"/>
<path d="M18.75 8.75L20.75 8.75" stroke="#5D5D5D" stroke-width="1.5" stroke-linecap="round" stroke-linejoin="round"/>
</svg>
