<svg width="32" height="32" viewBox="0 0 32 32" fill="none" xmlns="http://www.w3.org/2000/svg">
<path d="M15.7458 0C7.05413 0 0 7.05413 0 15.7458C0 24.4375 7.05413 31.4917 15.7458 31.4917C24.4375 31.4917 31.4917 24.4375 31.4917 15.7458C31.4917 7.05413 24.4375 0 15.7458 0ZM3.14917 15.7458C3.14917 8.78618 8.78618 3.14917 15.7458 3.14917C18.6588 3.14917 21.3356 4.14115 23.4613 5.81021L5.81021 23.4613C4.08074 21.2619 3.14323 18.5437 3.14917 15.7458ZM15.7458 28.3425C12.8329 28.3425 10.1561 27.3505 8.03038 25.6815L25.6815 8.03038C27.4109 10.2297 28.3484 12.9479 28.3425 15.7458C28.3425 22.7055 22.7055 28.3425 15.7458 28.3425Z" fill="#F24822"/>
</svg>
