<svg width="28" height="28" viewBox="0 0 28 28" fill="none" xmlns="http://www.w3.org/2000/svg">
<path d="M13.9997 2.66659H7.73301C5.4928 2.66659 4.37269 2.66659 3.51705 3.10256C2.7644 3.48605 2.15248 4.09798 1.76898 4.85062C1.33301 5.70627 1.33301 6.82638 1.33301 9.06659V20.2666C1.33301 22.5068 1.33301 23.6269 1.76898 24.4825C2.15248 25.2352 2.7644 25.8471 3.51705 26.2306C4.37269 26.6666 5.4928 26.6666 7.73301 26.6666H19.9997C21.2396 26.6666 21.8596 26.6666 22.3683 26.5303C23.7487 26.1604 24.8268 25.0822 25.1967 23.7019C25.333 23.1932 25.333 22.5732 25.333 21.3333M22.6663 9.33325V1.33325M18.6663 5.33325H26.6663M11.333 9.99992C11.333 11.4727 10.1391 12.6666 8.66634 12.6666C7.19358 12.6666 5.99968 11.4727 5.99968 9.99992C5.99968 8.52716 7.19358 7.33325 8.66634 7.33325C10.1391 7.33325 11.333 8.52716 11.333 9.99992ZM17.3197 14.5574L6.04121 24.8107C5.40683 25.3874 5.08963 25.6757 5.06158 25.9255C5.03726 26.142 5.12028 26.3568 5.28392 26.5006C5.47271 26.6666 5.90138 26.6666 6.75872 26.6666H19.2743C21.1932 26.6666 22.1527 26.6666 22.9062 26.3442C23.8523 25.9395 24.6059 25.1858 25.0106 24.2398C25.333 23.4862 25.333 22.5268 25.333 20.6079C25.333 19.9623 25.333 19.6394 25.2624 19.3388C25.1737 18.961 25.0036 18.6071 24.764 18.3018C24.5733 18.0589 24.3213 17.8572 23.8171 17.4539L20.0874 14.4701C19.5829 14.0665 19.3306 13.8646 19.0527 13.7934C18.8079 13.7306 18.5502 13.7387 18.3097 13.8168C18.0369 13.9054 17.7979 14.1228 17.3197 14.5574Z" stroke="#535862" stroke-width="2.66667" stroke-linecap="round" stroke-linejoin="round"/>
</svg>
