<svg width="16" height="17" viewBox="0 0 16 17" fill="none" xmlns="http://www.w3.org/2000/svg">
<path d="M6.22222 13.6C6.45797 13.6 6.68406 13.5104 6.85076 13.351C7.01746 13.1916 7.11111 12.9754 7.11111 12.75V7.65C7.11111 7.42457 7.01746 7.20837 6.85076 7.04896C6.68406 6.88955 6.45797 6.8 6.22222 6.8C5.98647 6.8 5.76038 6.88955 5.59368 7.04896C5.42698 7.20837 5.33333 7.42457 5.33333 7.65V12.75C5.33333 12.9754 5.42698 13.1916 5.59368 13.351C5.76038 13.5104 5.98647 13.6 6.22222 13.6ZM15.1111 3.4H11.5556V2.55C11.5556 1.8737 11.2746 1.2251 10.7745 0.746878C10.2744 0.26866 9.59613 0 8.88889 0H7.11111C6.40387 0 5.72559 0.26866 5.22549 0.746878C4.7254 1.2251 4.44444 1.8737 4.44444 2.55V3.4H0.888889C0.653141 3.4 0.427048 3.48955 0.260349 3.64896C0.0936505 3.80837 0 4.02457 0 4.25C0 4.47543 0.0936505 4.69163 0.260349 4.85104C0.427048 5.01045 0.653141 5.1 0.888889 5.1H1.77778V14.45C1.77778 15.1263 2.05873 15.7749 2.55883 16.2531C3.05892 16.7313 3.7372 17 4.44444 17H11.5556C12.2628 17 12.9411 16.7313 13.4412 16.2531C13.9413 15.7749 14.2222 15.1263 14.2222 14.45V5.1H15.1111C15.3469 5.1 15.573 5.01045 15.7397 4.85104C15.9064 4.69163 16 4.47543 16 4.25C16 4.02457 15.9064 3.80837 15.7397 3.64896C15.573 3.48955 15.3469 3.4 15.1111 3.4ZM6.22222 2.55C6.22222 2.32457 6.31587 2.10837 6.48257 1.94896C6.64927 1.78955 6.87536 1.7 7.11111 1.7H8.88889C9.12464 1.7 9.35073 1.78955 9.51743 1.94896C9.68413 2.10837 9.77778 2.32457 9.77778 2.55V3.4H6.22222V2.55ZM12.4444 14.45C12.4444 14.6754 12.3508 14.8916 12.1841 15.051C12.0174 15.2104 11.7913 15.3 11.5556 15.3H4.44444C4.2087 15.3 3.9826 15.2104 3.81591 15.051C3.64921 14.8916 3.55556 14.6754 3.55556 14.45V5.1H12.4444V14.45ZM9.77778 13.6C10.0135 13.6 10.2396 13.5104 10.4063 13.351C10.573 13.1916 10.6667 12.9754 10.6667 12.75V7.65C10.6667 7.42457 10.573 7.20837 10.4063 7.04896C10.2396 6.88955 10.0135 6.8 9.77778 6.8C9.54203 6.8 9.31594 6.88955 9.14924 7.04896C8.98254 7.20837 8.88889 7.42457 8.88889 7.65V12.75C8.88889 12.9754 8.98254 13.1916 9.14924 13.351C9.31594 13.5104 9.54203 13.6 9.77778 13.6Z" fill="#F24822"/>
</svg>
