<svg width="19" height="19" viewBox="0 0 19 19" fill="none" xmlns="http://www.w3.org/2000/svg">
<path d="M9 0.500001C4.03725 0.500001 0 4.53725 0 9.5C0 14.4628 4.03725 18.5 9 18.5C12.0375 18.5 14.73 16.991 16.3597 14.6795L15.141 13.8125C14.449 14.7983 13.5295 15.6027 12.4605 16.1576C11.3915 16.7124 10.2044 17.0014 9 17C4.84875 17 1.5 13.6513 1.5 9.5C1.5 5.34875 4.84875 2 9 2C10.2044 1.9986 11.3915 2.28757 12.4605 2.84245C13.5295 3.39732 14.449 4.20173 15.141 5.1875L16.3597 4.3205C15.5296 3.1398 14.4275 2.17626 13.1465 1.51129C11.8655 0.846316 10.4433 0.499451 9 0.500001ZM14.508 5.96075L13.4295 7.03925L15.141 8.75H6V10.25H15.141L13.4295 11.9608L14.508 13.0392L17.508 10.0393L18.0225 9.5L17.5072 8.96075L14.508 5.96075Z" fill="#FA0404"/>
</svg>
