<svg width="32" height="32" viewBox="0 0 32 32" fill="none" xmlns="http://www.w3.org/2000/svg">
<path d="M15.7451 2.95221C19.138 2.95221 22.3919 4.30002 24.791 6.69916C27.1902 9.09829 28.538 12.3522 28.538 15.7451C28.538 19.138 27.1902 22.3919 24.791 24.791C22.3919 27.1902 19.138 28.538 15.7451 28.538C12.3522 28.538 9.09829 27.1902 6.69916 24.791C4.30002 22.3919 2.95221 19.138 2.95221 15.7451C2.95221 12.3522 4.30002 9.09829 6.69916 6.69916C9.09829 4.30002 12.3522 2.95221 15.7451 2.95221ZM15.7451 31.4902C19.921 31.4902 23.9258 29.8313 26.8786 26.8786C29.8313 23.9258 31.4902 19.921 31.4902 15.7451C31.4902 11.5692 29.8313 7.56441 26.8786 4.61163C23.9258 1.65885 19.921 0 15.7451 0C11.5692 0 7.56441 1.65885 4.61163 4.61163C1.65885 7.56441 0 11.5692 0 15.7451C0 19.921 1.65885 23.9258 4.61163 26.8786C7.56441 29.8313 11.5692 31.4902 15.7451 31.4902ZM15.7451 7.87255C14.9271 7.87255 14.269 8.53064 14.269 9.34865V16.2371C14.269 17.0551 14.9271 17.7132 15.7451 17.7132C16.5631 17.7132 17.2212 17.0551 17.2212 16.2371V9.34865C17.2212 8.53064 16.5631 7.87255 15.7451 7.87255ZM17.7132 21.6495C17.7132 21.1275 17.5059 20.6269 17.1368 20.2578C16.7677 19.8887 16.2671 19.6814 15.7451 19.6814C15.2231 19.6814 14.7225 19.8887 14.3534 20.2578C13.9843 20.6269 13.777 21.1275 13.777 21.6495C13.777 22.1715 13.9843 22.6721 14.3534 23.0412C14.7225 23.4103 15.2231 23.6176 15.7451 23.6176C16.2671 23.6176 16.7677 23.4103 17.1368 23.0412C17.5059 22.6721 17.7132 22.1715 17.7132 21.6495Z" fill="#F11B1B"/>
</svg>
