<svg width="20" height="17" viewBox="0 0 20 17" fill="none" xmlns="http://www.w3.org/2000/svg">
    <path fill-rule="evenodd" clip-rule="evenodd"
        d="M10 14.1332L14.0549 16.2326C14.2149 16.3154 14.3922 16.3591 14.5723 16.3603C14.7525 16.3615 14.9303 16.3201 15.0914 16.2395L18.5109 14.5297C18.7007 14.4349 18.8603 14.2891 18.9719 14.1086C19.0836 13.9282 19.1427 13.7202 19.1429 13.508V10.3492C19.1427 10.137 19.0836 9.92903 18.9719 9.74858C18.8603 9.56812 18.7007 9.42231 18.5109 9.32746L14.5714 7.35718L10.6171 9.40518C10.4311 9.50154 10.2752 9.64716 10.1664 9.82614C10.0575 10.0051 9.99998 10.2106 10 10.42V14.1332Z"
        stroke-linecap="round" stroke-linejoin="round" />
    <path fill-rule="evenodd" clip-rule="evenodd"
        d="M1.47429 14.452L4.912 16.2325C5.07202 16.3153 5.24933 16.359 5.42947 16.3602C5.60961 16.3614 5.78748 16.32 5.94858 16.2394L10 14.2142V10.3491C9.99989 10.1369 9.94071 9.92895 9.82909 9.7485C9.71747 9.56804 9.55781 9.42223 9.368 9.32738L5.42858 7.3571L1.47429 9.4051C1.2883 9.50145 1.13236 9.64708 1.02352 9.82606C0.914685 10.005 0.85713 10.2105 0.857147 10.42V13.4371C0.85713 13.6466 0.914685 13.852 1.02352 14.031C1.13236 14.21 1.2883 14.3556 1.47429 14.452ZM5.42858 7.27595L9.48343 9.37538C9.64345 9.45814 9.82075 9.5019 10.0009 9.50309C10.181 9.50428 10.3589 9.46287 10.52 9.38224L14.5714 7.3571V3.49195C14.5713 3.27977 14.5121 3.07181 14.4005 2.89135C14.2889 2.7109 14.1292 2.56509 13.9394 2.47024L10.52 0.760526C10.3589 0.679892 10.181 0.638482 10.0009 0.639673C9.82075 0.640865 9.64345 0.684625 9.48343 0.767384L6.04572 2.54795C5.85972 2.64431 5.70379 2.78994 5.59495 2.96891C5.48611 3.14789 5.42856 3.35334 5.42858 3.56281V7.27595Z"
        stroke-linecap="round" stroke-linejoin="round" />
    <path
        d="M5.82399 2.98327L9.48914 4.81527C9.64776 4.89454 9.82266 4.93581 9.99999 4.93581C10.1773 4.93581 10.3522 4.89454 10.5108 4.81527L14.1371 3.0027M8.05599 1.81299L12.2857 3.92842M12.6274 8.67013L16.8571 10.7856M3.48456 8.67013L7.71428 10.7856M10.3954 9.84042L14.0606 11.6724C14.2192 11.7517 14.3941 11.7929 14.5714 11.7929C14.7488 11.7929 14.9236 11.7517 15.0823 11.6724L18.7074 9.85984M1.25256 9.84042L4.91771 11.6724C5.07633 11.7517 5.25123 11.7929 5.42856 11.7929C5.60589 11.7929 5.78079 11.7517 5.93942 11.6724L9.56456 9.85984M9.99999 5.07127V9.6427M14.5714 11.9284V15.9284M5.42856 11.9284V15.9284"
        stroke-linecap="round" stroke-linejoin="round" />
</svg>