<svg width="24" height="21" viewBox="0 0 24 21" fill="none" xmlns="http://www.w3.org/2000/svg">
<g filter="url(#filter0_d_558_15982)">
<path fill-rule="evenodd" clip-rule="evenodd" d="M12 13.9935L16.0549 16.093C16.2149 16.1757 16.3922 16.2195 16.5723 16.2207C16.7525 16.2219 16.9303 16.1804 17.0914 16.0998L20.5109 14.3901C20.7007 14.2953 20.8603 14.1494 20.9719 13.969C21.0836 13.7885 21.1427 13.5806 21.1429 13.3684V10.2095C21.1427 9.99734 21.0836 9.78938 20.9719 9.60893C20.8603 9.42848 20.7007 9.28266 20.5109 9.18782L16.5714 7.21753L12.6171 9.26553C12.4311 9.36189 12.2752 9.50751 12.1664 9.68649C12.0575 9.86547 12 10.0709 12 10.2804V13.9935Z" stroke="#6D6D6D" stroke-linecap="round" stroke-linejoin="round"/>
<path fill-rule="evenodd" clip-rule="evenodd" d="M3.47456 14.3123L6.91228 16.0929C7.07229 16.1756 7.2496 16.2194 7.42974 16.2206C7.60989 16.2218 7.78776 16.1804 7.94885 16.0997L12.0003 14.0746V10.2094C12.0002 9.99726 11.941 9.7893 11.8294 9.60885C11.7177 9.4284 11.5581 9.28258 11.3683 9.18773L7.42885 7.21745L3.47456 9.26545C3.28857 9.36181 3.13264 9.50743 3.0238 9.68641C2.91496 9.86539 2.8574 10.0708 2.85742 10.2803V13.2974C2.8574 13.5069 2.91496 13.7124 3.0238 13.8913C3.13264 14.0703 3.28857 14.2159 3.47456 14.3123ZM7.42885 7.13631L11.4837 9.23573C11.6437 9.31849 11.821 9.36225 12.0012 9.36344C12.1813 9.36464 12.3592 9.32323 12.5203 9.24259L16.5717 7.21745V3.35231C16.5716 3.14012 16.5124 2.93216 16.4008 2.75171C16.2892 2.57125 16.1295 2.42544 15.9397 2.33059L12.5203 0.620878C12.3592 0.540244 12.1813 0.498833 12.0012 0.500025C11.821 0.501217 11.6437 0.544977 11.4837 0.627735L8.04599 2.40831C7.86 2.50466 7.70406 2.65029 7.59523 2.82926C7.48639 3.00824 7.42883 3.21369 7.42885 3.42316V7.13631Z" stroke="#6D6D6D" stroke-linecap="round" stroke-linejoin="round"/>
<path d="M7.82338 2.84363L11.4885 4.67563C11.6472 4.75489 11.8221 4.79616 11.9994 4.79616C12.1767 4.79616 12.3516 4.75489 12.5102 4.67563L16.1365 2.86305M10.0554 1.67334L14.2851 3.78877M14.6268 8.53048L18.8565 10.6459M5.48395 8.53048L9.71367 10.6459M12.3948 9.70077L16.06 11.5328C16.2186 11.612 16.3935 11.6533 16.5708 11.6533C16.7481 11.6533 16.923 11.612 17.0817 11.5328L20.7068 9.7202M3.25195 9.70077L6.9171 11.5328C7.07572 11.612 7.25062 11.6533 7.42795 11.6533C7.60528 11.6533 7.78018 11.612 7.93881 11.5328L11.564 9.7202M11.9994 4.93163V9.50305M16.5708 11.7888V15.7888M7.42795 11.7888V15.7888" stroke="#6D6D6D" stroke-linecap="round" stroke-linejoin="round"/>
</g>
<defs>
<filter id="filter0_d_558_15982" x="-1.64258" y="0" width="27.2852" height="24.7207" filterUnits="userSpaceOnUse" color-interpolation-filters="sRGB">
<feFlood flood-opacity="0" result="BackgroundImageFix"/>
<feColorMatrix in="SourceAlpha" type="matrix" values="0 0 0 0 0 0 0 0 0 0 0 0 0 0 0 0 0 0 127 0" result="hardAlpha"/>
<feOffset dy="4"/>
<feGaussianBlur stdDeviation="2"/>
<feComposite in2="hardAlpha" operator="out"/>
<feColorMatrix type="matrix" values="0 0 0 0 0 0 0 0 0 0 0 0 0 0 0 0 0 0 0.25 0"/>
<feBlend mode="normal" in2="BackgroundImageFix" result="effect1_dropShadow_558_15982"/>
<feBlend mode="normal" in="SourceGraphic" in2="effect1_dropShadow_558_15982" result="shape"/>
</filter>
</defs>
</svg>
