<svg width="22" height="22" viewBox="0 0 22 22" fill="none" xmlns="http://www.w3.org/2000/svg">
<path d="M0.75 16.75C0.75 15.2096 0.75 14.4393 1.09673 13.8735C1.29074 13.5569 1.55693 13.2907 1.87353 13.0967C2.43934 12.75 3.20956 12.75 4.75 12.75C6.29044 12.75 7.06066 12.75 7.62647 13.0967C7.94307 13.2907 8.20926 13.5569 8.40327 13.8735C8.75 14.4393 8.75 15.2096 8.75 16.75C8.75 18.2904 8.75 19.0607 8.40327 19.6265C8.20926 19.9431 7.94307 20.2093 7.62647 20.4033C7.06066 20.75 6.29044 20.75 4.75 20.75C3.20956 20.75 2.43934 20.75 1.87353 20.4033C1.55693 20.2093 1.29074 19.9431 1.09673 19.6265C0.75 19.0607 0.75 18.2904 0.75 16.75Z" stroke="#6D6D6D" stroke-width="1.5"/>
<path d="M12.75 16.75C12.75 15.2096 12.75 14.4393 13.0967 13.8735C13.2907 13.5569 13.5569 13.2907 13.8735 13.0967C14.4393 12.75 15.2096 12.75 16.75 12.75C18.2904 12.75 19.0607 12.75 19.6265 13.0967C19.9431 13.2907 20.2093 13.5569 20.4033 13.8735C20.75 14.4393 20.75 15.2096 20.75 16.75C20.75 18.2904 20.75 19.0607 20.4033 19.6265C20.2093 19.9431 19.9431 20.2093 19.6265 20.4033C19.0607 20.75 18.2904 20.75 16.75 20.75C15.2096 20.75 14.4393 20.75 13.8735 20.4033C13.5569 20.2093 13.2907 19.9431 13.0967 19.6265C12.75 19.0607 12.75 18.2904 12.75 16.75Z" stroke="#6D6D6D" stroke-width="1.5"/>
<path d="M0.75 4.75C0.75 3.20956 0.75 2.43934 1.09673 1.87353C1.29074 1.55693 1.55693 1.29074 1.87353 1.09673C2.43934 0.75 3.20956 0.75 4.75 0.75C6.29044 0.75 7.06066 0.75 7.62647 1.09673C7.94307 1.29074 8.20926 1.55693 8.40327 1.87353C8.75 2.43934 8.75 3.20956 8.75 4.75C8.75 6.29044 8.75 7.06066 8.40327 7.62647C8.20926 7.94307 7.94307 8.20926 7.62647 8.40327C7.06066 8.75 6.29044 8.75 4.75 8.75C3.20956 8.75 2.43934 8.75 1.87353 8.40327C1.55693 8.20926 1.29074 7.94307 1.09673 7.62647C0.75 7.06066 0.75 6.29044 0.75 4.75Z" stroke="#6D6D6D" stroke-width="1.5"/>
<path d="M12.75 4.75C12.75 3.20956 12.75 2.43934 13.0967 1.87353C13.2907 1.55693 13.5569 1.29074 13.8735 1.09673C14.4393 0.75 15.2096 0.75 16.75 0.75C18.2904 0.75 19.0607 0.75 19.6265 1.09673C19.9431 1.29074 20.2093 1.55693 20.4033 1.87353C20.75 2.43934 20.75 3.20956 20.75 4.75C20.75 6.29044 20.75 7.06066 20.4033 7.62647C20.2093 7.94307 19.9431 8.20926 19.6265 8.40327C19.0607 8.75 18.2904 8.75 16.75 8.75C15.2096 8.75 14.4393 8.75 13.8735 8.40327C13.5569 8.20926 13.2907 7.94307 13.0967 7.62647C12.75 7.06066 12.75 6.29044 12.75 4.75Z" stroke="#6D6D6D" stroke-width="1.5"/>
</svg>
