<svg width="22" height="23" viewBox="0 0 22 23" fill="none" xmlns="http://www.w3.org/2000/svg">
<path d="M1 17.5C1 15.9596 1 15.1893 1.34673 14.6235C1.54074 14.3069 1.80693 14.0407 2.12353 13.8467C2.68934 13.5 3.45956 13.5 5 13.5C6.54044 13.5 7.31066 13.5 7.87647 13.8467C8.19307 14.0407 8.45926 14.3069 8.65327 14.6235C9 15.1893 9 15.9596 9 17.5C9 19.0404 9 19.8107 8.65327 20.3765C8.45926 20.6931 8.19307 20.9593 7.87647 21.1533C7.31066 21.5 6.54044 21.5 5 21.5C3.45956 21.5 2.68934 21.5 2.12353 21.1533C1.80693 20.9593 1.54074 20.6931 1.34673 20.3765C1 19.8107 1 19.0404 1 17.5Z" stroke-width="1.5"/>
<path d="M13 17.5C13 15.9596 13 15.1893 13.3467 14.6235C13.5407 14.3069 13.8069 14.0407 14.1235 13.8467C14.6893 13.5 15.4596 13.5 17 13.5C18.5404 13.5 19.3107 13.5 19.8765 13.8467C20.1931 14.0407 20.4593 14.3069 20.6533 14.6235C21 15.1893 21 15.9596 21 17.5C21 19.0404 21 19.8107 20.6533 20.3765C20.4593 20.6931 20.1931 20.9593 19.8765 21.1533C19.3107 21.5 18.5404 21.5 17 21.5C15.4596 21.5 14.6893 21.5 14.1235 21.1533C13.8069 20.9593 13.5407 20.6931 13.3467 20.3765C13 19.8107 13 19.0404 13 17.5Z"  stroke-width="1.5"/>
<path d="M1 5.5C1 3.95956 1 3.18934 1.34673 2.62353C1.54074 2.30693 1.80693 2.04074 2.12353 1.84673C2.68934 1.5 3.45956 1.5 5 1.5C6.54044 1.5 7.31066 1.5 7.87647 1.84673C8.19307 2.04074 8.45926 2.30693 8.65327 2.62353C9 3.18934 9 3.95956 9 5.5C9 7.04044 9 7.81066 8.65327 8.37647C8.45926 8.69307 8.19307 8.95926 7.87647 9.15327C7.31066 9.5 6.54044 9.5 5 9.5C3.45956 9.5 2.68934 9.5 2.12353 9.15327C1.80693 8.95926 1.54074 8.69307 1.34673 8.37647C1 7.81066 1 7.04044 1 5.5Z"  stroke-width="1.5"/>
<path d="M13 5.5C13 3.95956 13 3.18934 13.3467 2.62353C13.5407 2.30693 13.8069 2.04074 14.1235 1.84673C14.6893 1.5 15.4596 1.5 17 1.5C18.5404 1.5 19.3107 1.5 19.8765 1.84673C20.1931 2.04074 20.4593 2.30693 20.6533 2.62353C21 3.18934 21 3.95956 21 5.5C21 7.04044 21 7.81066 20.6533 8.37647C20.4593 8.69307 20.1931 8.95926 19.8765 9.15327C19.3107 9.5 18.5404 9.5 17 9.5C15.4596 9.5 14.6893 9.5 14.1235 9.15327C13.8069 8.95926 13.5407 8.69307 13.3467 8.37647C13 7.81066 13 7.04044 13 5.5Z" stroke-width="1.5"/>
</svg>
