<svg width="11" height="11" viewBox="0 0 11 11" fill="#E97E39" xmlns="http://www.w3.org/2000/svg">
<path d="M8.1895 4.49275L5.227 1.53025C5.09038 1.3888 5.01479 1.19935 5.01649 1.0027C5.0182 0.806052 5.09708 0.617942 5.23614 0.478886C5.37519 0.33983 5.5633 0.260953 5.75995 0.259245C5.9566 0.257536 6.14605 0.333132 6.2875 0.46975L10.5302 4.7125C10.6001 4.78199 10.6556 4.86461 10.6934 4.95561C10.7313 5.04661 10.7508 5.14419 10.7508 5.24275C10.7508 5.34131 10.7313 5.43889 10.6934 5.52989C10.6556 5.62089 10.6001 5.70351 10.5302 5.773L6.2875 10.0157C6.21831 10.0874 6.13556 10.1445 6.04405 10.1838C5.95255 10.2231 5.85413 10.2438 5.75455 10.2447C5.65497 10.2456 5.55621 10.2266 5.46403 10.1889C5.37186 10.1512 5.28812 10.0955 5.2177 10.025C5.14728 9.95463 5.09159 9.87089 5.05388 9.77872C5.01617 9.68654 4.9972 9.58778 4.99806 9.4882C4.99893 9.38861 5.01962 9.2902 5.05892 9.1987C5.09823 9.10719 5.15537 9.02443 5.227 8.95525L8.1895 5.99275H1C0.801088 5.99275 0.610322 5.91373 0.46967 5.77308C0.329018 5.63243 0.25 5.44166 0.25 5.24275C0.25 5.04384 0.329018 4.85307 0.46967 4.71242C0.610322 4.57177 0.801088 4.49275 1 4.49275H8.1895Z" fill="#E97E39"/>
</svg>
