<svg width="22" height="21" viewBox="0 0 22 21" fill="none" xmlns="http://www.w3.org/2000/svg">
<path d="M4.08069 13.7964C2.86241 14.5335 -0.331825 16.0386 1.61368 17.922C2.56404 18.842 3.62251 19.5 4.95325 19.5H12.5468C13.8775 19.5 14.936 18.842 15.8863 17.922C17.8318 16.0386 14.6376 14.5335 13.4193 13.7964C10.5625 12.0679 6.93752 12.0679 4.08069 13.7964Z" stroke-width="1.5" stroke-linecap="round" stroke-linejoin="round"/>
<path d="M12.5 5.5C12.5 7.70914 10.7091 9.5 8.5 9.5C6.29086 9.5 4.5 7.70914 4.5 5.5C4.5 3.29086 6.29086 1.5 8.5 1.5C10.7091 1.5 12.5 3.29086 12.5 5.5Z" stroke-width="1.5"/>
<path d="M16 3.5L21 3.5" stroke-width="1.5" stroke-linecap="round" stroke-linejoin="round"/>
<path d="M16 6.5L21 6.5" stroke-width="1.5" stroke-linecap="round" stroke-linejoin="round"/>
<path d="M19 9.5L21 9.5" stroke-width="1.5" stroke-linecap="round" stroke-linejoin="round"/>
</svg>
