<svg width="22" height="22" viewBox="0 0 22 22" fill="none" xmlns="http://www.w3.org/2000/svg">
    <path
        d="M15.7175 13.19C17.0875 13.42 18.5975 13.18 19.6575 12.47C21.0675 11.53 21.0675 9.99 19.6575 9.05C18.5875 8.34 17.0575 8.1 15.6875 8.34M5.7475 13.19C4.3775 13.42 2.8675 13.18 1.8075 12.47C0.3975 11.53 0.3975 9.99 1.8075 9.05C2.8775 8.34 4.4075 8.1 5.7775 8.34M16.7475 5.91C16.6846 5.89999 16.6204 5.89999 16.5575 5.91C15.8901 5.88587 15.2583 5.60321 14.7955 5.12176C14.3327 4.64032 14.0752 3.9978 14.0775 3.33C14.0775 1.9 15.2275 0.75 16.6575 0.75C17.3418 0.75 17.998 1.02182 18.4818 1.50566C18.9657 1.98951 19.2375 2.64574 19.2375 3.33C19.2357 3.99827 18.9755 4.63996 18.5114 5.12081C18.0473 5.60167 17.4153 5.88445 16.7475 5.91ZM4.7175 5.91C4.7775 5.9 4.8475 5.9 4.9075 5.91C5.57487 5.88587 6.20671 5.60321 6.66949 5.12176C7.13228 4.64032 7.38975 3.9978 7.3875 3.33C7.3875 1.9 6.2375 0.75 4.8075 0.75C4.12324 0.75 3.46701 1.02182 2.98316 1.50566C2.49932 1.98951 2.2275 2.64574 2.2275 3.33C2.2375 4.73 3.3375 5.86 4.7175 5.91ZM10.7475 13.38C10.6846 13.37 10.6204 13.37 10.5575 13.38C9.89013 13.3559 9.25829 13.0732 8.79551 12.5918C8.33272 12.1103 8.07525 11.4678 8.0775 10.8C8.0775 9.37 9.2275 8.22 10.6575 8.22C11.3418 8.22 11.998 8.49182 12.4818 8.97566C12.9657 9.45951 13.2375 10.1157 13.2375 10.8C13.2275 12.2 12.1275 13.34 10.7475 13.38ZM7.8375 16.53C6.4275 17.47 6.4275 19.01 7.8375 19.95C9.4375 21.02 12.0575 21.02 13.6575 19.95C15.0675 19.01 15.0675 17.47 13.6575 16.53C12.0675 15.47 9.4375 15.47 7.8375 16.53Z"
        stroke="#5D5D5D" stroke-width="1.5" stroke-linecap="round" stroke-linejoin="round" />
</svg>