<svg width="22" height="23" viewBox="0 0 22 23" fill="none" xmlns="http://www.w3.org/2000/svg">
<path d="M15.97 13.94C17.34 14.17 18.85 13.93 19.91 13.22C21.32 12.28 21.32 10.74 19.91 9.8C18.84 9.09 17.31 8.85 15.94 9.09M6 13.94C4.63 14.17 3.12 13.93 2.06 13.22C0.650002 12.28 0.650002 10.74 2.06 9.8C3.13 9.09 4.66 8.85 6.03 9.09M17 6.66C16.9371 6.64999 16.8729 6.64999 16.81 6.66C16.1426 6.63587 15.5108 6.35321 15.048 5.87176C14.5852 5.39032 14.3277 4.7478 14.33 4.08C14.33 2.65 15.48 1.5 16.91 1.5C17.5943 1.5 18.2505 1.77182 18.7343 2.25566C19.2182 2.73951 19.49 3.39574 19.49 4.08C19.4882 4.74827 19.228 5.38996 18.7639 5.87081C18.2998 6.35167 17.6678 6.63445 17 6.66ZM4.97 6.66C5.03 6.65 5.1 6.65 5.16 6.66C5.82737 6.63587 6.45921 6.35321 6.922 5.87176C7.38478 5.39032 7.64226 4.7478 7.64 4.08C7.64 2.65 6.49 1.5 5.06 1.5C4.37574 1.5 3.71951 1.77182 3.23567 2.25566C2.75182 2.73951 2.48 3.39574 2.48 4.08C2.49 5.48 3.59 6.61 4.97 6.66ZM11 14.13C10.9371 14.12 10.8729 14.12 10.81 14.13C10.1426 14.1059 9.51079 13.8232 9.04801 13.3418C8.58522 12.8603 8.32775 12.2178 8.33 11.55C8.33 10.12 9.48 8.97 10.91 8.97C11.5943 8.97 12.2505 9.24182 12.7343 9.72566C13.2182 10.2095 13.49 10.8657 13.49 11.55C13.48 12.95 12.38 14.09 11 14.13ZM8.09 17.28C6.68 18.22 6.68 19.76 8.09 20.7C9.69 21.77 12.31 21.77 13.91 20.7C15.32 19.76 15.32 18.22 13.91 17.28C12.32 16.22 9.69 16.22 8.09 17.28Z" stroke-width="1.5" stroke-linecap="round" stroke-linejoin="round"/>
</svg>
